<svg width="491" height="491" viewBox="0 0 491 491" fill="none" xmlns="http://www.w3.org/2000/svg">
<g clip-path="url(#clip0)">
<path d="M245.333 0C109.839 0 0 109.839 0 245.333C0 380.827 109.839 490.666 245.333 490.666C380.827 490.666 490.666 380.827 490.666 245.333C490.514 109.903 380.764 0.153 245.333 0Z" fill="#FFC107"/>
<path d="M274.627 357.806C271.351 357.806 268.693 355.147 268.693 351.872V72.9345C268.693 69.6582 271.352 67 274.627 67C277.903 67 280.562 69.6589 280.562 72.9345V351.871C280.562 355.147 277.903 357.806 274.627 357.806Z" fill="#7383BF"/>
<path d="M188.578 423C164.862 423 144.536 413.373 136.156 395.753C131.123 385.178 130.862 373.023 135.396 360.619C142.339 341.61 160.037 324.108 182.738 313.794C221.432 296.226 263.534 304.268 276.596 331.728C281.629 342.304 281.891 354.459 277.356 366.863C270.412 385.872 252.715 403.373 230.015 413.688C216.14 419.991 201.831 423 188.578 423Z" fill="#556080"/>
<path d="M351.774 286.588C348.693 286.588 346.106 284.22 345.863 281.122C345.394 275.158 341.05 258.143 310.918 228.955C269.167 188.509 268.692 140.799 268.692 138.793V72.9345C268.692 69.6582 271.351 67 274.627 67C277.902 67 280.561 69.6589 280.561 72.9345C280.561 73.3677 281.178 117.76 319.179 154.574C358.58 192.741 358.212 217.055 357.714 221.679V280.654C357.714 283.841 355.197 286.458 352.01 286.582C351.934 286.588 351.857 286.588 351.774 286.588Z" fill="#556080"/>
</g>
<defs>
<clipPath id="clip0">
<rect width="490.667" height="490.667" fill="white"/>
</clipPath>
</defs>
</svg>
