<?xml version="1.0" encoding="iso-8859-1"?>
<!-- Generator: Adobe Illustrator 19.0.0, SVG Export Plug-In . SVG Version: 6.00 Build 0)  -->
<svg version="1.1" id="Capa_1" xmlns="http://www.w3.org/2000/svg" xmlns:xlink="http://www.w3.org/1999/xlink" x="0px" y="0px"
	 viewBox="0 0 512 512" style="enable-background:new 0 0 512 512;" xml:space="preserve">
<path style="fill:#FC8354;" d="M311.249,103.002L311.249,103.002V19.427L73.553,72.144v83.575l0,0V334.67
	c-8.294-3.418-17.31-5.46-25.325-5.46c-22.501,0-40.742,14.321-40.742,31.986c0,17.666,18.241,31.986,40.742,31.986
	c41.229,0,52.936-31.14,52.936-43.406V149.595l182.472-40.469V279.9c-8.294-3.418-17.31-5.46-25.324-5.46
	c-22.501,0-40.742,14.321-40.742,31.986c0,17.666,18.241,31.986,40.742,31.986c36.206,0,52.936-26.963,52.936-44.629
	C311.249,283.027,311.249,103.002,311.249,103.002z"/>
<g>
	<path style="fill:#FD6E2E;" d="M86.192,152.915v196.86c0,11.411-10.147,39.143-44.756,42.955c2.21,0.291,4.477,0.451,6.792,0.451
		c41.229,0,52.936-31.14,52.936-43.406V152.687v-3.092l0,0L86.192,152.915z"/>
	<path style="fill:#FD6E2E;" d="M311.249,19.427l-14.973,3.321v80.254l0,0c0,0,0,180.025,0,190.782
		c0,16.309-14.273,40.524-44.951,44.15c2.272,0.308,4.604,0.478,6.988,0.478c36.206,0,52.936-26.963,52.936-44.629
		c0-10.757,0-190.782,0-190.782l0,0V19.427z"/>
</g>
<path style="fill:#7AB8DD;" d="M462.624,200.096c-23.733-9.804-47.304-37.865-64.459-62.533c-0.594-1.205-1.357-2.308-2.26-3.283
	c-8.87-13.019-15.822-24.789-19.894-31.986c-1.089-1.926-4.027-1.148-4.027,1.064v40.296v78.86v204.728
	c-10.562-4.991-22.589-8.047-33.107-8.047c-25.809,0-46.732,16.426-46.732,36.689s20.923,36.689,46.732,36.689
	c38.721,0,60.718-37.008,60.718-57.271c0-8.062,0-121.772,0-204.782c60.953,22.665,93.588,69.7,102.38,84
	c0.724,1.177,2.533,0.667,2.537-0.714C504.568,293.474,502.133,216.417,462.624,200.096z"/>
<path style="fill:#6FA9D4;" d="M504.512,313.801c0.009-3.555-0.058-8.842-0.385-15.232c-10.529-32.949-34.96-76.658-119.173-106.781
	c0,83.01,0,217.818,0,225.88c0,20.263-21.997,57.271-60.718,57.271c-11.512,0-22.045-3.274-30.189-8.693
	c0.17,0.454,0.352,0.903,0.543,1.349c0.018,0.042,0.036,0.085,0.055,0.127c0.193,0.445,0.396,0.888,0.61,1.325
	c0.001,0.002,0.002,0.004,0.003,0.005c0.885,1.805,1.947,3.541,3.168,5.195c0.029,0.04,0.058,0.08,0.088,0.12
	c0.282,0.379,0.574,0.754,0.873,1.125c0.048,0.059,0.096,0.118,0.144,0.177c0.305,0.373,0.615,0.742,0.936,1.106
	c0.005,0.006,0.01,0.011,0.015,0.017c1.01,1.142,2.103,2.235,3.268,3.277c0.061,0.055,0.121,0.111,0.182,0.165
	c0.328,0.29,0.664,0.573,1.003,0.855c0.123,0.103,0.247,0.205,0.372,0.306c0.326,0.264,0.656,0.525,0.992,0.782
	c0.14,0.107,0.282,0.212,0.423,0.317c0.34,0.253,0.681,0.506,1.03,0.751c0.105,0.074,0.213,0.144,0.319,0.217
	c0.717,0.494,1.453,0.971,2.208,1.43c0.133,0.081,0.262,0.165,0.396,0.244c0.321,0.191,0.65,0.375,0.978,0.56
	c0.231,0.13,0.461,0.261,0.695,0.388c0.312,0.169,0.628,0.334,0.946,0.498c0.263,0.135,0.527,0.268,0.794,0.4
	c0.307,0.151,0.614,0.301,0.926,0.447c0.299,0.14,0.603,0.274,0.906,0.409c0.29,0.129,0.578,0.26,0.872,0.384
	c0.532,0.224,1.069,0.44,1.613,0.649c0.27,0.103,0.544,0.2,0.817,0.3c0.4,0.146,0.8,0.291,1.206,0.428
	c0.273,0.092,0.55,0.179,0.826,0.267c0.379,0.121,0.759,0.24,1.142,0.353c0.279,0.083,0.56,0.163,0.841,0.242
	c0.402,0.112,0.806,0.219,1.212,0.322c0.264,0.067,0.527,0.136,0.793,0.199c0.494,0.118,0.993,0.228,1.494,0.333
	c0.182,0.038,0.361,0.081,0.544,0.118c0.678,0.136,1.363,0.26,2.053,0.372c0.205,0.033,0.412,0.06,0.618,0.092
	c0.502,0.076,1.006,0.149,1.514,0.212c0.258,0.032,0.518,0.06,0.777,0.089c0.469,0.052,0.94,0.1,1.413,0.141
	c0.265,0.023,0.531,0.046,0.797,0.065c0.499,0.037,1.002,0.065,1.506,0.09c0.233,0.011,0.466,0.026,0.7,0.034
	c0.736,0.027,1.474,0.044,2.218,0.044c38.721,0,60.718-37.008,60.718-57.271c0-8.062,0-121.772,0-204.782
	c60.951,22.664,93.586,69.698,102.38,83.999C502.699,315.697,504.508,315.184,504.512,313.801z"/>
<polygon style="fill:#FD6E2E;" points="311.249,103.002 311.249,19.427 73.553,72.144 73.553,155.718 "/>
<path d="M48.229,400.668c25.221,0,39.798-10.705,47.585-19.685c9.476-10.927,12.838-23.641,12.838-31.207V155.603l167.5-37.148
	v151.02c-6.142-1.646-12.248-2.521-17.838-2.521c-26.594,0-48.229,17.707-48.229,39.473c0,21.765,21.636,39.473,48.229,39.473
	c41.219,0,60.423-31.098,60.423-52.115V103.014c0-0.004,0-0.007,0-0.011V19.427c0-2.27-1.03-4.418-2.801-5.839
	c-1.771-1.42-4.092-1.96-6.307-1.47L71.932,64.835c-3.427,0.76-5.865,3.799-5.865,7.309v83.575c0,0.003,0,0.006,0,0.009v42.71
	c0,4.135,3.352,7.486,7.486,7.486s7.486-3.351,7.486-7.486v-36.711l12.638-2.803v190.852c0,7.587-7.714,35.919-45.45,35.919
	c-18.337,0-33.256-10.991-33.256-24.5s14.918-24.5,33.256-24.5c6.833,0,14.814,1.738,22.473,4.894
	c2.308,0.95,4.94,0.688,7.017-0.701c2.076-1.39,3.322-3.723,3.322-6.221V232.043c0-4.135-3.352-7.486-7.486-7.486
	s-7.486,3.351-7.486,7.486v92.2c-6.141-1.645-12.248-2.52-17.838-2.52C21.635,321.723,0,339.43,0,361.195
	C0,382.961,21.635,400.668,48.229,400.668z M292.993,317.502c-5.959,6.124-16.813,13.424-34.68,13.424
	c-18.337,0-33.256-10.991-33.256-24.5s14.919-24.5,33.256-24.5c6.831,0,14.812,1.738,22.472,4.895
	c2.308,0.95,4.94,0.688,7.017-0.701c2.076-1.39,3.322-3.723,3.322-6.221V115.134l12.638-2.803v181.453
	C303.763,299.9,300.933,309.342,292.993,317.502z M81.04,146.389V78.151l222.723-49.395v68.238l-21.62,4.795
	c-0.014,0.003-0.027,0.006-0.041,0.009L99.664,142.259c-0.007,0.002-0.015,0.003-0.022,0.005L81.04,146.389z"/>
<path d="M505.697,253.753c-7.498-32.27-21.028-52.65-40.215-60.576c-17.842-7.37-38.89-27.934-60.888-59.48
	c-0.769-1.451-1.702-2.806-2.783-4.043c-8.481-12.48-15.16-23.754-19.284-31.045c-2.153-3.808-6.613-5.689-10.841-4.575
	c-4.233,1.114-7.189,4.948-7.189,9.324v164.288c0,4.135,3.352,7.486,7.486,7.486s7.486-3.351,7.486-7.486V122.76
	c3.034,4.871,6.47,10.191,10.247,15.735c0.21,0.309,0.443,0.6,0.697,0.874c0.417,0.45,0.766,0.957,1.037,1.507
	c0.165,0.334,0.354,0.655,0.567,0.961c24.082,34.627,46.875,56.556,67.747,65.177c18.011,7.441,26.988,31.366,31.347,50.126
	c2.952,12.705,4.45,25.64,5.199,36.28c-16.431-21.024-47.225-52.486-94.107-69.919c-2.296-0.854-4.868-0.53-6.882,0.87
	c-2.013,1.399-3.214,3.695-3.214,6.147V435.3c0,17.551-20.21,49.784-53.232,49.784c-21.64,0-39.245-13.1-39.245-29.202
	s17.605-29.202,39.245-29.202c9.15,0,20.052,2.671,29.909,7.33c2.319,1.095,5.038,0.928,7.205-0.445
	c2.167-1.372,3.48-3.76,3.48-6.324V302.915c0-4.135-3.352-7.486-7.486-7.486s-7.486,3.351-7.486,7.486v113.283
	c-8.715-2.896-17.653-4.489-25.621-4.489c-29.896,0-54.218,19.817-54.218,44.175s24.322,44.175,54.218,44.175
	c19.226,0,37.163-8.376,50.507-23.586c10.751-12.253,17.698-28.414,17.698-41.171V241.63c52.323,23.02,80.732,64.15,88.516,76.81
	c2.095,3.41,6.092,4.972,9.943,3.888c3.851-1.084,6.447-4.501,6.459-8.503C512.026,304.034,511.465,278.578,505.697,253.753z"/>
<path d="M494.101,433.605c-0.2,0.146-20.479,14.672-65.832,18.738c-4.119,0.368-7.157,4.006-6.789,8.125
	c0.349,3.89,3.615,6.818,7.448,6.818c0.224,0,0.45-0.01,0.677-0.03c50.081-4.489,72.52-20.951,73.45-21.65
	c3.293-2.472,3.955-7.127,1.501-10.434C502.104,431.864,497.423,431.172,494.101,433.605z"/>
<path d="M257.454,436.317c-88.235-17.468-157.928-24.206-207.148-20.03c-19.579,1.662-33.541,5.049-42.189,8.47
	c-4.648,1.838-6.218,7.623-3.094,11.525c0.046,0.058,0.092,0.115,0.138,0.172c2.033,2.541,5.483,3.462,8.503,2.251
	c6.166-2.472,18.858-6.187,41.864-7.806c59.432-4.178,141.03,8.625,199.019,20.106c0.491,0.096,0.98,0.143,1.462,0.143
	c3.501,0,6.63-2.468,7.336-6.033C264.147,441.059,261.51,437.12,257.454,436.317z"/>
<path d="M434.801,379.281c-3.974,0.351-7.203,3.654-7.11,7.642c0.096,4.14,3.476,7.327,7.477,7.327c0.218,0,0.439-0.009,0.66-0.028
	c32.882-2.871,51.128-10.184,60.294-15.38c4.267-2.419,5.053-8.238,1.604-11.726l0,0c-2.347-2.374-6.001-2.932-8.907-1.289
	C480.584,370.484,463.222,376.769,434.801,379.281z"/>
<path d="M138.001,343.258c-4.108-0.439-7.797,2.547-8.231,6.659c-0.434,4.113,2.547,7.797,6.659,8.232
	c26.418,2.789,63.517,8.844,107.287,17.509c41.189,8.155,70.54,13.173,92.371,15.793c0.303,0.037,0.603,0.055,0.901,0.055
	c3.736,0,6.967-2.794,7.424-6.596c0.492-4.105-2.436-7.833-6.541-8.325c-21.445-2.573-50.439-7.535-91.247-15.615
	C202.419,352.22,164.858,346.095,138.001,343.258z"/>
<g>
</g>
<g>
</g>
<g>
</g>
<g>
</g>
<g>
</g>
<g>
</g>
<g>
</g>
<g>
</g>
<g>
</g>
<g>
</g>
<g>
</g>
<g>
</g>
<g>
</g>
<g>
</g>
<g>
</g>
</svg>
