<?xml version="1.0" encoding="utf-8"?>
<!-- Generator: Adobe Illustrator 19.0.0, SVG Export Plug-In . SVG Version: 6.00 Build 0)  -->
<svg version="1.1" id="Layer_1" xmlns="http://www.w3.org/2000/svg" xmlns:xlink="http://www.w3.org/1999/xlink" x="0px" y="0px"
	 viewBox="3 -139 279 330" enable-background="new 3 -139 279 330" xml:space="preserve">
<filter  filterUnits="userSpaceOnUse" id="filter_2" color-interpolation-filters="sRGB">
	<feFlood  result="BackgroundImageFix" flood-opacity="0"></feFlood>
	<feColorMatrix  type="matrix" values="0 0 0 0 0 0 0 0 0 0 0 0 0 0 0 0 0 0 127 0" in="SourceAlpha"></feColorMatrix>
	<feOffset  dy="12" dx="0"></feOffset>
	<feGaussianBlur  stdDeviation="2"></feGaussianBlur>
	<feColorMatrix  type="matrix" values="0 0 0 0 0 0 0 0 0 0 0 0 0 0 0 0 0 0 0.4980392 0"></feColorMatrix>
	<feBlend  result="effect0_dropShadow" mode="normal" in2="BackgroundImageFix"></feBlend>
	<feBlend  result="shape" mode="normal" in2="effect0_dropShadow" in="SourceGraphic"></feBlend>
</filter>
<filter  filterUnits="userSpaceOnUse" id="filter_1" color-interpolation-filters="sRGB">
	<feFlood  result="BackgroundImageFix" flood-opacity="0"></feFlood>
	<feColorMatrix  type="matrix" values="0 0 0 0 0 0 0 0 0 0 0 0 0 0 0 0 0 0 127 0" in="SourceAlpha"></feColorMatrix>
	<feOffset  dy="14" dx="0"></feOffset>
	<feGaussianBlur  stdDeviation="2"></feGaussianBlur>
	<feColorMatrix  type="matrix" values="0 0 0 0 0 0 0 0 0 0 0 0 0 0 0 0 0 0 0.4980392 0"></feColorMatrix>
	<feBlend  result="effect0_dropShadow" mode="normal" in2="BackgroundImageFix"></feBlend>
	<feBlend  result="shape" mode="normal" in2="effect0_dropShadow" in="SourceGraphic"></feBlend>
</filter>
<desc>Created with Lunacy</desc>
<g id="Group" transform="translate(-167 -138)" opacity="0.96">
	<g filter="url(#filter_1)">
		<path id="Ellipse-2_1_" fill="#0085FF" d="M44,90.99c0-110.18,89.32-199.5,199.5-199.5c110.18,0,199.5,89.32,199.5,199.5
			c0,110.18-89.32,199.5-199.5,199.5C133.32,290.49,44,201.17,44,90.99z"/>
	</g>
	<g filter="url(#filter_2)">
		<path id="Ellipse-3_1_" fill="#FFA700" d="M21.29,158.49c0,0-18.29,76.13-18.29-33.5s73.87-253.5,183.5-253.5
			c50.33,0,133.51-26.38,168.5,4.5c41.22,36.37,55,127.7,55,187c0,109.63-134.62,253.25-241,258c-109.63,0-93.71-6.5-93.71-6.5
			L19.41,165.45"/>
	</g>
	<g filter="url(#filter_2)">
		<g id="Ellipse-4_1_">
			<path opacity="0.7098" fill="#FF6A00" d="M70,194.49c0-69.04,55.96-125,125-125c69.04,0,125,55.96,125,125
				c0,26.05-0.48,62.33-0.5,81c0,0-4.93,2.05-9,3.5l-6,2c0,0-0.25,0.13-1.5,0.5s-3,1-3,1l-9,2.5l-8.5,1.5l-7.5,1.5l-15,2l-21.5,0.5
				l-15-1l-12-1.5l-21.5-4.5l-15.5-5l-16.5-7l-84,29L70,194.49"/>
		</g>
	</g>
</g>
</svg>
