<svg xmlns="http://www.w3.org/2000/svg" height="589pt" version="1.1" viewBox="-34 0 589 589.13366" width="589pt">
<g id="surface1">
<path d="M 241.597656 37.683594 L 280.367188 37.683594 L 280.367188 76.777344 L 241.597656 76.777344 Z M 241.597656 37.683594 " style=" stroke:none;fill-rule:nonzero;fill:rgb(48.627451%,74.901961%,81.960784%);fill-opacity:1;" />
<path d="M 513.476562 328.59375 C 513.476562 468.027344 400.441406 581.058594 261.007812 581.058594 C 121.578125 581.058594 8.542969 468.027344 8.542969 328.59375 C 8.542969 189.160156 121.578125 76.125 261.007812 76.125 C 400.441406 76.125 513.476562 189.160156 513.476562 328.59375 Z M 513.476562 328.59375 " style=" stroke:none;fill-rule:nonzero;fill:rgb(48.627451%,74.901961%,81.960784%);fill-opacity:1;" />
<path d="M 463.34375 328.59375 C 463.34375 440.339844 372.753906 530.925781 261.007812 530.925781 C 149.265625 530.925781 58.675781 440.339844 58.675781 328.59375 C 58.675781 216.847656 149.265625 126.261719 261.007812 126.261719 C 372.753906 126.261719 463.34375 216.847656 463.34375 328.59375 Z M 463.34375 328.59375 " style=" stroke:none;fill-rule:nonzero;fill:rgb(92.941176%,96.078431%,100%);fill-opacity:1;" />
<path d="M 289.667969 328.59375 C 289.667969 344.417969 276.835938 357.25 261.007812 357.25 C 245.183594 357.25 232.351562 344.417969 232.351562 328.59375 C 232.351562 312.765625 245.183594 299.9375 261.007812 299.9375 C 276.835938 299.9375 289.667969 312.765625 289.667969 328.59375 Z M 289.667969 328.59375 " style=" stroke:none;fill-rule:nonzero;fill:rgb(31.372549%,52.156863%,64.705882%);fill-opacity:1;" />
<path d="M 315.386719 38.988281 C 315.386719 21.835938 301.488281 7.9375 284.335938 7.9375 L 237.84375 7.9375 C 220.695312 7.847656 206.726562 21.671875 206.632812 38.824219 C 206.632812 38.878906 206.632812 38.933594 206.632812 38.988281 Z M 315.386719 38.988281 " style=" stroke:none;fill-rule:nonzero;fill:rgb(31.372549%,52.156863%,64.705882%);fill-opacity:1;" />
<path d="M 487.484375 156.929688 C 496.164062 148.277344 496.191406 134.230469 487.539062 125.554688 C 487.523438 125.539062 487.5 125.515625 487.484375 125.5 L 464.101562 102.117188 C 455.417969 93.449219 441.359375 93.449219 432.675781 102.117188 Z M 487.484375 156.929688 " style=" stroke:none;fill-rule:nonzero;fill:rgb(31.372549%,52.156863%,64.705882%);fill-opacity:1;" />
<path d="M 261.007812 589 C 404.796875 588.917969 521.296875 472.285156 521.214844 328.5 C 521.132812 194.640625 419.566406 82.652344 286.347656 69.546875 L 286.347656 47.035156 L 315.386719 47.035156 C 319.730469 46.914062 323.167969 43.332031 323.105469 38.988281 C 323.074219 17.464844 305.640625 0.03125 284.121094 0 L 237.847656 0 C 216.324219 0.03125 198.890625 17.464844 198.859375 38.988281 C 198.800781 43.351562 202.273438 46.949219 206.636719 47.035156 L 235.507812 47.035156 L 235.507812 69.492188 C 92.378906 83.253906 -12.488281 210.445312 1.273438 353.566406 C 14.132812 487.3125 126.652344 589.296875 261.007812 589 Z M 237.847656 15.933594 L 284.121094 15.933594 C 293.84375 15.953125 302.519531 22.027344 305.871094 31.15625 L 216.09375 31.15625 C 219.4375 22.027344 228.125 15.953125 237.847656 15.933594 Z M 251.492188 46.980469 L 270.46875 46.980469 L 270.46875 68.457031 C 267.316406 68.457031 264.164062 68.457031 260.953125 68.457031 C 257.746094 68.457031 254.648438 68.457031 251.4375 68.457031 Z M 261.007812 84.066406 C 396.148438 84.066406 505.699219 193.617188 505.699219 328.757812 C 505.699219 463.894531 396.148438 573.449219 261.007812 573.449219 C 125.871094 573.449219 16.320312 463.894531 16.320312 328.757812 C 16.320312 193.617188 125.871094 84.066406 261.007812 84.066406 Z M 261.007812 84.066406 " style=" stroke:none;fill-rule:nonzero;fill:rgb(14.117647%,18.039216%,20%);fill-opacity:1;" />
<path d="M 261.007812 538.863281 C 377.140625 538.863281 471.28125 444.722656 471.28125 328.59375 C 471.28125 212.460938 377.140625 118.320312 261.007812 118.320312 C 144.878906 118.320312 50.738281 212.460938 50.738281 328.59375 C 50.859375 444.675781 144.929688 538.746094 261.007812 538.863281 Z M 261.007812 134.199219 C 368.371094 134.199219 455.402344 221.234375 455.402344 328.59375 C 455.402344 435.953125 368.371094 522.988281 261.007812 522.988281 C 153.648438 522.988281 66.617188 435.953125 66.617188 328.59375 C 66.761719 221.292969 153.710938 134.351562 261.007812 134.199219 Z M 261.007812 134.199219 " style=" stroke:none;fill-rule:nonzero;fill:rgb(14.117647%,18.039216%,20%);fill-opacity:1;" />
<path d="M 261.007812 361.601562 C 279.210938 361.605469 293.96875 346.851562 293.96875 328.652344 C 293.96875 323.285156 292.65625 318 290.15625 313.257812 L 348.878906 252.683594 C 351.453125 249.132812 350.660156 244.171875 347.109375 241.597656 C 344.226562 239.507812 340.304688 239.597656 337.515625 241.808594 L 279.605469 301.625 C 264.679688 291.210938 244.140625 294.871094 233.730469 309.796875 C 223.316406 324.722656 226.976562 345.261719 241.902344 355.671875 C 247.503906 359.582031 254.179688 361.652344 261.007812 361.601562 Z M 261.007812 311.519531 C 270.472656 311.519531 278.136719 319.1875 278.136719 328.648438 C 278.136719 338.109375 270.46875 345.773438 261.007812 345.773438 C 251.546875 345.773438 243.882812 338.109375 243.882812 328.648438 C 243.882812 319.1875 251.546875 311.519531 261.007812 311.519531 Z M 261.007812 311.519531 " style=" stroke:none;fill-rule:nonzero;fill:rgb(14.117647%,18.039216%,20%);fill-opacity:1;" />
<path d="M 261.007812 193.46875 C 263.804688 193.46875 266.066406 191.207031 266.066406 188.414062 L 266.066406 149.480469 C 266.066406 146.671875 263.789062 144.394531 260.984375 144.394531 C 258.175781 144.394531 255.898438 146.671875 255.898438 149.480469 L 255.898438 188.359375 C 255.867188 191.152344 258.105469 193.4375 260.902344 193.46875 C 260.933594 193.46875 260.972656 193.46875 261.007812 193.46875 Z M 261.007812 193.46875 " style=" stroke:none;fill-rule:nonzero;fill:rgb(14.117647%,18.039216%,20%);fill-opacity:1;" />
<path d="M 401.246094 333.703125 L 440.125 333.703125 C 442.929688 333.703125 445.207031 331.425781 445.207031 328.621094 C 445.207031 325.816406 442.929688 323.535156 440.125 323.535156 L 401.246094 323.535156 C 398.4375 323.535156 396.160156 325.816406 396.160156 328.621094 C 396.160156 331.425781 398.433594 333.703125 401.246094 333.703125 Z M 401.246094 333.703125 " style=" stroke:none;fill-rule:nonzero;fill:rgb(14.117647%,18.039216%,20%);fill-opacity:1;" />
<path d="M 261.007812 463.773438 C 258.214844 463.773438 255.953125 466.035156 255.953125 468.828125 L 255.953125 507.707031 C 255.953125 510.511719 258.230469 512.792969 261.035156 512.792969 C 263.84375 512.792969 266.121094 510.511719 266.121094 507.707031 L 266.121094 468.828125 C 266.121094 466.03125 263.859375 463.773438 261.0625 463.773438 C 261.042969 463.773438 261.027344 463.773438 261.007812 463.773438 Z M 261.007812 463.773438 " style=" stroke:none;fill-rule:nonzero;fill:rgb(14.117647%,18.039216%,20%);fill-opacity:1;" />
<path d="M 125.832031 328.59375 C 125.832031 325.796875 123.570312 323.535156 120.773438 323.535156 L 81.894531 323.535156 C 79.089844 323.535156 76.8125 325.816406 76.8125 328.621094 C 76.8125 331.425781 79.089844 333.703125 81.894531 333.703125 L 120.773438 333.703125 C 123.570312 333.703125 125.832031 331.441406 125.832031 328.648438 C 125.832031 328.632812 125.832031 328.609375 125.832031 328.59375 Z M 125.832031 328.59375 " style=" stroke:none;fill-rule:nonzero;fill:rgb(14.117647%,18.039216%,20%);fill-opacity:1;" />
<path d="M 360.191406 234.742188 C 361.535156 234.746094 362.828125 234.21875 363.78125 233.273438 L 391.511719 205.542969 C 393.496094 203.558594 393.496094 200.347656 391.511719 198.363281 C 389.527344 196.378906 386.320312 196.378906 384.335938 198.363281 L 356.820312 225.878906 C 354.714844 227.714844 354.503906 230.914062 356.34375 233.011719 C 357.308594 234.121094 358.71875 234.75 360.191406 234.742188 Z M 360.191406 234.742188 " style=" stroke:none;fill-rule:nonzero;fill:rgb(14.117647%,18.039216%,20%);fill-opacity:1;" />
<path d="M 384.0625 458.878906 C 386.046875 460.933594 389.320312 461 391.375 459.011719 C 393.429688 457.027344 393.496094 453.753906 391.511719 451.699219 L 363.996094 424.1875 C 362.011719 422.203125 358.804688 422.203125 356.820312 424.1875 C 354.835938 426.171875 354.835938 429.378906 356.820312 431.363281 Z M 384.0625 458.878906 " style=" stroke:none;fill-rule:nonzero;fill:rgb(14.117647%,18.039216%,20%);fill-opacity:1;" />
<path d="M 134.3125 460.347656 C 135.65625 460.351562 136.949219 459.824219 137.902344 458.878906 L 165.417969 431.363281 C 167.402344 429.378906 167.402344 426.171875 165.417969 424.1875 C 163.433594 422.203125 160.222656 422.203125 158.238281 424.1875 L 130.507812 451.703125 C 128.523438 453.667969 128.511719 456.871094 130.480469 458.851562 C 131.4375 459.8125 132.738281 460.351562 134.097656 460.347656 C 134.097656 460.347656 134.3125 460.347656 134.3125 460.347656 Z M 134.3125 460.347656 " style=" stroke:none;fill-rule:nonzero;fill:rgb(14.117647%,18.039216%,20%);fill-opacity:1;" />
<path d="M 158.238281 233.054688 C 160.222656 235.039062 163.433594 235.039062 165.417969 233.054688 C 167.402344 231.070312 167.402344 227.863281 165.417969 225.878906 L 137.902344 198.363281 C 135.917969 196.320312 132.660156 196.269531 130.617188 198.253906 C 128.570312 200.238281 128.523438 203.496094 130.507812 205.542969 Z M 158.238281 233.054688 " style=" stroke:none;fill-rule:nonzero;fill:rgb(14.117647%,18.039216%,20%);fill-opacity:1;" />
<path d="M 481.882812 162.527344 C 484.984375 165.613281 489.988281 165.613281 493.085938 162.527344 C 504.859375 150.773438 504.871094 131.699219 493.113281 119.925781 C 493.101562 119.914062 493.089844 119.902344 493.085938 119.898438 L 469.703125 96.515625 C 457.941406 84.773438 438.890625 84.773438 427.128906 96.515625 C 424.042969 99.617188 424.042969 104.621094 427.128906 107.71875 Z M 458.503906 107.71875 L 481.882812 131.101562 C 485.277344 134.488281 486.746094 139.34375 485.800781 144.042969 L 445.5625 103.804688 C 450.253906 102.890625 455.097656 104.351562 458.503906 107.71875 Z M 458.503906 107.71875 " style=" stroke:none;fill-rule:nonzero;fill:rgb(14.117647%,18.039216%,20%);fill-opacity:1;" />
</g>
</svg>