<svg width="313" height="141" viewBox="0 0 313 141" fill="none" xmlns="http://www.w3.org/2000/svg">
<g filter="url(#filter0_d)">
<g filter="url(#filter1_d)">
<g filter="url(#filter2_d)">
<path d="M48.7782 42.2895C48.0907 40.602 47.2469 39.0708 46.2469 37.6958C43.8094 34.477 41.1219 32.8676 38.1844 32.8676C36.2782 32.8676 34.3563 33.5708 32.4188 34.977C28.7313 37.602 25.5594 42.1645 22.9032 48.6645C20.1219 55.352 18.7313 61.9145 18.7313 68.352C18.7313 74.5395 19.7313 79.6958 21.7313 83.8208C23.9501 88.3833 26.9813 90.6645 30.8251 90.6645C32.6063 90.6645 34.5907 89.852 36.7782 88.227C40.2157 85.6333 43.1688 81.8676 45.6376 76.9301C45.7001 76.7426 45.7938 76.5551 45.9188 76.3676C46.6376 75.1489 47.6844 74.5395 49.0594 74.5395C49.7157 74.5395 50.3407 74.6958 50.9344 75.0083C52.1844 75.727 52.8094 76.8208 52.8094 78.2895C52.8094 78.8208 52.6532 79.4301 52.3407 80.1176C50.3407 84.3676 47.9344 87.977 45.1219 90.9458C40.4344 95.852 35.4032 98.3051 30.0282 98.3051C29.3407 98.3051 28.6532 98.2583 27.9657 98.1645C23.1532 97.477 19.1688 94.6176 16.0126 89.5864C12.5126 83.9926 10.7626 76.9926 10.7626 68.5864C10.7626 63.5864 11.4813 58.5239 12.9188 53.3989C15.1688 45.3364 18.6376 38.6489 23.3251 33.3364C28.2313 27.8364 33.4188 25.0864 38.8876 25.0864C41.2313 25.0864 43.4657 25.602 45.5907 26.6333C50.0907 28.8833 53.4657 33.1176 55.7157 39.3364C55.9657 39.9301 56.0907 40.5083 56.0907 41.0708C56.0907 41.727 55.9188 42.352 55.5751 42.9458C54.8251 44.1958 53.7469 44.8208 52.3407 44.8208C50.9032 44.727 49.7157 43.8833 48.7782 42.2895ZM84.7313 72.9458C84.9813 71.0395 85.2938 67.4614 85.6688 62.2114C85.7001 61.9614 85.7313 61.727 85.7626 61.5083C86.1376 59.5395 87.3407 58.5239 89.3719 58.4614C89.4657 58.4614 89.5751 58.477 89.7001 58.5083C91.3876 58.6958 92.2313 60.0083 92.2313 62.4458C92.2313 63.0708 92.1688 64.0083 92.0438 65.2583C91.9813 65.8208 91.9344 66.2426 91.9032 66.5239C91.3719 74.9926 91.1063 80.352 91.1063 82.602C91.1063 83.4145 91.1532 84.227 91.2469 85.0395C91.7469 89.0083 93.1376 90.9926 95.4188 90.9926C95.7313 90.9926 96.0594 90.9614 96.4032 90.8989C97.3094 90.6801 98.6376 89.9458 100.388 88.6958C102.106 87.4458 103.481 86.8208 104.513 86.8208C104.919 86.8208 105.309 86.9458 105.684 87.1958C106.653 87.7895 107.138 88.7114 107.138 89.9614C107.138 90.0551 107.122 90.1801 107.091 90.3364C106.872 91.8364 105.575 93.3833 103.2 94.977C100.294 96.9458 97.4032 97.9301 94.5282 97.9301C90.6532 97.8989 87.8876 96.1333 86.2313 92.6333C83.4813 96.0083 79.7157 97.7114 74.9344 97.7426C73.8094 97.7426 72.7469 97.602 71.7469 97.3208C66.2782 95.6645 63.5438 89.6489 63.5438 79.2739C63.5438 74.2739 64.0907 69.2426 65.1844 64.1801C65.2469 63.9301 65.3094 63.6645 65.3719 63.3833C66.3407 59.9458 67.7157 58.227 69.4969 58.227C71.7157 58.2583 72.8563 59.477 72.9188 61.8833C72.9188 62.3833 72.7782 63.4926 72.4969 65.2114C71.4032 72.2114 70.8563 77.2739 70.8563 80.3989C70.8563 86.8989 72.5126 90.1801 75.8251 90.2426C80.1063 90.2114 83.0751 84.4458 84.7313 72.9458ZM107.513 58.602C109.731 58.6333 110.872 59.8676 110.934 62.3051C110.934 62.8051 110.763 64.0551 110.419 66.0551C109.2 73.2114 108.591 78.3833 108.591 81.5708C108.591 87.7895 110.294 90.9301 113.7 90.9926C115.888 90.9926 118.044 89.9926 120.169 87.9926C122.95 85.4301 125.263 81.852 127.106 77.2583C125.763 77.0395 124.513 76.6489 123.356 76.0864C119.794 74.3364 118.013 71.3364 118.013 67.0864C118.013 65.0239 118.763 63.227 120.263 61.6958C121.95 59.977 123.934 59.1176 126.216 59.1176C128.434 59.1176 130.372 59.727 132.028 60.9458C134.216 62.602 135.309 64.8364 135.309 67.6489C135.309 67.8364 135.278 68.6333 135.216 70.0395C135.747 69.7895 136.419 69.4145 137.231 68.9145C138.419 68.1645 139.419 67.7895 140.231 67.7895C140.669 67.7895 141.091 67.9145 141.497 68.1645C142.559 68.7583 143.091 69.6489 143.091 70.8364C143.091 71.5551 142.825 72.2583 142.294 72.9458C140.856 74.6958 138.075 76.0083 133.95 76.8833C132.669 81.3208 130.809 85.2895 128.372 88.7895C123.966 95.1333 118.763 98.3051 112.763 98.3051C109.763 98.2739 107.309 97.102 105.403 94.7895C102.809 91.477 101.513 86.4301 101.513 79.6489C101.513 74.5864 102.075 69.5708 103.2 64.602C103.2 64.5395 103.216 64.4614 103.247 64.3676C104.153 60.5864 105.575 58.6645 107.513 58.602ZM126.872 65.6333C126.559 65.6333 126.231 65.6958 125.888 65.8208C124.888 66.1958 124.388 66.8833 124.388 67.8833C124.419 69.6645 125.903 70.6958 128.841 70.977C128.997 70.2583 129.075 69.5083 129.075 68.727C129.075 68.5395 129.059 68.3364 129.028 68.1176C128.841 66.4614 128.122 65.6333 126.872 65.6333ZM136.153 83.5864C136.153 82.5239 136.216 81.3989 136.341 80.2114C136.997 74.8364 138.684 70.0708 141.403 65.9145C144.716 60.852 148.7 58.3208 153.356 58.3208C155.356 58.3208 157.106 58.7114 158.606 59.4926C159.231 58.7426 160.091 58.352 161.184 58.3208C161.809 58.3208 162.2 58.3676 162.356 58.4614C163.7 58.8989 164.372 60.227 164.372 62.4458C164.372 63.352 164.216 65.3051 163.903 68.3051C162.934 77.1801 162.45 82.6958 162.45 84.852C162.45 86.2895 162.747 87.6333 163.341 88.8833C164.216 90.7583 165.372 91.6958 166.809 91.6958C167.091 91.6958 167.388 91.6645 167.7 91.602C168.638 91.4145 169.981 90.6958 171.731 89.4458C173.45 88.1958 174.825 87.5708 175.856 87.5708C176.263 87.5708 176.684 87.7114 177.122 87.9926C178.028 88.6176 178.481 89.4458 178.481 90.477C178.388 92.102 177.153 93.7895 174.778 95.5395C171.934 97.5395 168.919 98.5395 165.731 98.5395C161.794 98.5083 158.888 96.5239 157.013 92.5864C156.575 93.1176 156.075 93.6489 155.513 94.1801C152.419 97.0864 149.278 98.5395 146.091 98.5395C144.091 98.5395 142.356 98.0239 140.888 96.9926C137.731 94.6801 136.153 90.2114 136.153 83.5864ZM156.778 68.1645C156.778 68.1645 156.888 67.102 157.106 64.977C156.419 64.6333 155.7 64.4614 154.95 64.4614C154.388 64.4614 153.809 64.5395 153.216 64.6958C150.309 65.5083 147.856 68.1958 145.856 72.7583C144.075 76.852 143.184 80.9614 143.184 85.0864C143.184 85.2426 143.184 85.3989 143.184 85.5551C143.278 89.3676 144.247 91.2739 146.091 91.2739C147.059 91.2426 148.247 90.7114 149.653 89.6801C151.091 88.6489 152.138 87.6801 152.794 86.7739C153.2 86.1801 153.747 84.4458 154.434 81.5708C155.684 76.227 156.466 71.7583 156.778 68.1645ZM175.575 93.4301C175.575 93.4301 176.903 83.3989 179.559 63.3364C179.622 62.8051 179.7 62.3051 179.794 61.8364C180.356 59.1489 181.575 57.8051 183.45 57.8051C183.794 57.8051 184.138 57.8364 184.481 57.8989C185.919 58.2426 186.638 59.602 186.638 61.977C186.638 62.3208 186.606 62.9145 186.544 63.7583C186.513 64.3208 186.497 64.7583 186.497 65.0708C186.559 64.9458 186.638 64.8208 186.731 64.6958C189.044 60.602 192.341 58.5551 196.622 58.5551C198.153 58.5551 199.559 59.0083 200.841 59.9145C202.747 61.3208 203.7 63.1801 203.7 65.4926C203.7 65.8676 203.684 66.7583 203.653 68.1645C203.622 71.352 203.606 73.8833 203.606 75.7583C203.606 82.1333 203.794 85.8833 204.169 87.0083C204.263 87.2583 204.356 87.5239 204.45 87.8051C205.325 90.1801 206.559 91.3676 208.153 91.3676C208.434 91.3676 208.747 91.3364 209.091 91.2739C210.028 91.0864 211.372 90.352 213.122 89.0708C214.841 87.852 216.216 87.2426 217.247 87.2426C217.653 87.2426 218.044 87.352 218.419 87.5708C219.388 88.1333 219.872 89.0551 219.872 90.3364C219.684 91.8676 218.372 93.5551 215.934 95.3989C213.059 97.3364 210.169 98.3051 207.263 98.3051C204.919 98.3051 202.934 97.6645 201.309 96.3833C197.966 93.6958 196.294 87.8051 196.294 78.7114C196.294 78.0551 196.309 76.9926 196.341 75.5239C196.403 73.9926 196.434 72.7114 196.434 71.6801C196.434 68.3364 196.059 66.6176 195.309 66.5239C195.184 66.5239 195.028 66.5551 194.841 66.6176C193.059 67.2739 190.778 70.8208 187.997 77.2583C185.559 82.9145 183.997 87.6176 183.309 91.3676L183.216 92.727C183.122 93.852 182.809 94.8833 182.278 95.8208C181.372 97.3208 180.247 98.0708 178.903 98.0708C178.528 98.0708 178.153 97.9926 177.778 97.8364C176.309 97.1489 175.575 95.6801 175.575 93.4301ZM214.95 46.4145C214.981 46.4145 215.138 46.4145 215.419 46.4145C217.169 46.477 218.747 46.5083 220.153 46.5083L222.216 32.0239C222.341 31.0551 222.497 30.2426 222.684 29.5864C223.247 27.5239 224.388 26.4926 226.106 26.4926C226.45 26.4926 226.794 26.5239 227.138 26.5864C228.575 26.9301 229.294 28.2895 229.294 30.6645C229.294 31.4145 228.669 36.6958 227.419 46.5083H232.341C233.184 46.5083 233.919 46.6801 234.544 47.0239C235.638 47.6801 236.184 48.6489 236.184 49.9301C236.184 50.4926 236.044 51.0239 235.763 51.5239C235.044 52.7114 233.872 53.3051 232.247 53.3051H226.434C223.997 72.0551 222.778 82.5708 222.778 84.852C222.778 86.2895 223.075 87.6333 223.669 88.8833C224.544 90.7583 225.7 91.6958 227.138 91.6958C227.481 91.6958 227.841 91.6489 228.216 91.5551C229.059 91.3364 230.263 90.6176 231.825 89.3989C233.356 88.1801 234.638 87.5708 235.669 87.5708C236.106 87.5708 236.528 87.6645 236.934 87.852C238.059 88.4145 238.622 89.2739 238.622 90.4301C238.528 92.0551 237.325 93.7426 235.013 95.4926C232.2 97.5239 229.216 98.5395 226.059 98.5395C222.966 98.5083 220.434 97.2114 218.466 94.6489C216.466 91.9301 215.466 88.5083 215.466 84.3833C215.466 83.477 216.7 73.1176 219.169 53.3051H214.95C214.763 53.3051 214.575 53.3051 214.388 53.3051C212.231 53.1176 211.153 51.9926 211.153 49.9301C211.153 49.3676 211.247 48.852 211.434 48.3833C211.997 47.0708 213.169 46.4145 214.95 46.4145ZM254.325 72.9458C254.575 71.0395 254.888 67.4614 255.263 62.2114C255.294 61.9614 255.325 61.727 255.356 61.5083C255.731 59.5395 256.934 58.5239 258.966 58.4614C259.059 58.4614 259.169 58.477 259.294 58.5083C260.981 58.6958 261.825 60.0083 261.825 62.4458C261.825 63.0708 261.763 64.0083 261.638 65.2583C261.575 65.8208 261.528 66.2426 261.497 66.5239C260.966 74.9926 260.7 80.352 260.7 82.602C260.7 83.4145 260.747 84.227 260.841 85.0395C261.341 89.0083 262.731 90.9926 265.013 90.9926C265.325 90.9926 265.653 90.9614 265.997 90.8989C266.903 90.6801 268.231 89.9458 269.981 88.6958C271.7 87.4458 273.075 86.8208 274.106 86.8208C274.513 86.8208 274.903 86.9458 275.278 87.1958C276.247 87.7895 276.731 88.7114 276.731 89.9614C276.731 90.0551 276.716 90.1801 276.684 90.3364C276.466 91.8364 275.169 93.3833 272.794 94.977C269.888 96.9458 266.997 97.9301 264.122 97.9301C260.247 97.8989 257.481 96.1333 255.825 92.6333C253.075 96.0083 249.309 97.7114 244.528 97.7426C243.403 97.7426 242.341 97.602 241.341 97.3208C235.872 95.6645 233.138 89.6489 233.138 79.2739C233.138 74.2739 233.684 69.2426 234.778 64.1801C234.841 63.9301 234.903 63.6645 234.966 63.3833C235.934 59.9458 237.309 58.227 239.091 58.227C241.309 58.2583 242.45 59.477 242.513 61.8833C242.513 62.3833 242.372 63.4926 242.091 65.2114C240.997 72.2114 240.45 77.2739 240.45 80.3989C240.45 86.8989 242.106 90.1801 245.419 90.2426C249.7 90.2114 252.669 84.4458 254.325 72.9458ZM290.372 98.3051C282.841 97.9926 277.263 93.3989 273.638 84.5239C270.95 77.8364 269.606 69.6489 269.606 59.9614C269.606 59.4614 269.638 58.8208 269.7 58.0395C270.138 51.4458 271.356 45.3989 273.356 39.8989C276.606 31.0239 281.2 26.5864 287.138 26.5864C287.45 26.5864 287.778 26.602 288.122 26.6333C293.528 26.977 296.231 30.1176 296.231 36.0551C296.231 42.5239 293.45 49.7114 287.888 57.6176C284.356 62.6489 280.653 66.727 276.778 69.852C277.841 75.7895 279.013 80.2426 280.294 83.2114C282.669 88.7114 286.2 91.4614 290.888 91.4614C291.2 91.4614 291.528 91.4301 291.872 91.3676C292.903 91.1801 294.341 90.4301 296.184 89.1176C297.966 87.8989 299.356 87.2895 300.356 87.2895C300.794 87.2895 301.216 87.4301 301.622 87.7114C302.528 88.3364 302.981 89.1801 302.981 90.2426C302.919 91.8676 301.763 93.5395 299.513 95.2583C296.7 97.2895 293.653 98.3051 290.372 98.3051ZM287.184 33.6645C285.341 33.6958 283.716 34.4926 282.309 36.0551C278.747 40.0864 276.794 48.5083 276.45 61.3208C278.325 59.4145 280.2 57.1645 282.075 54.5708C287.263 47.477 289.856 41.4926 289.856 36.6176C289.856 36.3676 289.794 36.0708 289.669 35.727C289.169 34.352 288.341 33.6645 287.184 33.6645Z" fill="white"/>
</g>
</g>
<g filter="url(#filter3_d)">
<g filter="url(#filter4_d)">
<path d="M89.2559 19.0747C88.8763 18.1431 88.4105 17.2977 87.8584 16.5386C86.5127 14.7616 85.029 13.873 83.4072 13.873C82.3548 13.873 81.2938 14.2612 80.2241 15.0376C78.1883 16.4868 76.4372 19.0057 74.9707 22.5942C73.4352 26.2863 72.6675 29.9093 72.6675 33.4634C72.6675 36.8794 73.2196 39.7261 74.3237 42.0034C75.5487 44.5223 77.2222 45.7817 79.3442 45.7817C80.3276 45.7817 81.4232 45.3332 82.6309 44.436C84.5286 43.0041 86.159 40.9251 87.522 38.1992C87.5565 38.0957 87.6082 37.9922 87.6772 37.8887C88.0741 37.2158 88.652 36.8794 89.4111 36.8794C89.7734 36.8794 90.1185 36.9657 90.4463 37.1382C91.1364 37.535 91.4814 38.1388 91.4814 38.9497C91.4814 39.243 91.3952 39.5794 91.2227 39.959C90.1185 42.3053 88.79 44.298 87.2373 45.937C84.6494 48.6457 81.8717 50 78.9043 50C78.5247 50 78.1452 49.9741 77.7656 49.9224C75.1087 49.5428 72.909 47.9642 71.1665 45.1865C69.2342 42.0983 68.2681 38.2337 68.2681 33.5928C68.2681 30.8324 68.6649 28.0374 69.4585 25.208C70.7007 20.7568 72.6157 17.0648 75.2036 14.1318C77.9123 11.0954 80.7762 9.57715 83.7954 9.57715C85.0894 9.57715 86.3229 9.86182 87.4961 10.4312C89.9805 11.6733 91.8438 14.0111 93.0859 17.4443C93.224 17.7721 93.293 18.0913 93.293 18.4019C93.293 18.7642 93.1981 19.1092 93.0083 19.437C92.5942 20.1271 91.999 20.4722 91.2227 20.4722C90.429 20.4204 89.7734 19.9546 89.2559 19.0747ZM97.2266 41.874C97.2266 41.2874 97.2611 40.6663 97.3301 40.0107C97.6924 37.0433 98.624 34.4123 100.125 32.1177C101.954 29.3228 104.153 27.9253 106.724 27.9253C107.828 27.9253 108.794 28.141 109.623 28.5723C109.968 28.1582 110.442 27.9425 111.046 27.9253C111.391 27.9253 111.607 27.9512 111.693 28.0029C112.435 28.2445 112.806 28.9777 112.806 30.2026C112.806 30.703 112.719 31.7812 112.547 33.4375C112.012 38.3372 111.745 41.3823 111.745 42.5728C111.745 43.3664 111.909 44.1082 112.236 44.7983C112.719 45.8335 113.358 46.3511 114.151 46.3511C114.307 46.3511 114.471 46.3338 114.643 46.2993C115.161 46.1958 115.903 45.799 116.869 45.1089C117.818 44.4188 118.577 44.0737 119.146 44.0737C119.37 44.0737 119.603 44.1514 119.845 44.3066C120.345 44.6517 120.595 45.1089 120.595 45.6782C120.543 46.5754 119.862 47.507 118.551 48.4731C116.981 49.5773 115.316 50.1294 113.556 50.1294C111.382 50.1121 109.778 49.0166 108.743 46.8428C108.501 47.1361 108.225 47.4294 107.915 47.7227C106.207 49.3271 104.473 50.1294 102.713 50.1294C101.609 50.1294 100.651 49.8447 99.8403 49.2754C98.0978 47.9987 97.2266 45.5316 97.2266 41.874ZM108.613 33.3599C108.613 33.3599 108.674 32.7733 108.794 31.6001C108.415 31.4103 108.018 31.3154 107.604 31.3154C107.293 31.3154 106.974 31.3586 106.646 31.4448C105.042 31.8934 103.688 33.3771 102.583 35.896C101.6 38.1561 101.108 40.4248 101.108 42.7021C101.108 42.7884 101.108 42.8747 101.108 42.9609C101.16 45.0658 101.695 46.1182 102.713 46.1182C103.248 46.1009 103.903 45.8076 104.68 45.2383C105.473 44.6689 106.051 44.1341 106.414 43.6338C106.638 43.306 106.94 42.3485 107.319 40.7612C108.009 37.811 108.441 35.3439 108.613 33.3599ZM118.991 47.3086C118.991 47.3086 119.724 41.7705 121.19 30.6943C121.225 30.401 121.268 30.125 121.32 29.8662C121.63 28.3825 122.303 27.6406 123.338 27.6406C123.528 27.6406 123.718 27.6579 123.908 27.6924C124.701 27.8822 125.098 28.6326 125.098 29.9438C125.098 30.1336 125.081 30.4614 125.046 30.9272C125.029 31.2378 125.021 31.4793 125.021 31.6519C125.055 31.5828 125.098 31.5138 125.15 31.4448C126.427 29.1847 128.247 28.0547 130.61 28.0547C131.456 28.0547 132.232 28.3049 132.939 28.8052C133.992 29.5815 134.518 30.6081 134.518 31.8848C134.518 32.0918 134.509 32.5835 134.492 33.3599C134.475 35.1196 134.466 36.5171 134.466 37.5522C134.466 41.0718 134.57 43.1421 134.777 43.7632C134.829 43.9012 134.88 44.0479 134.932 44.2031C135.415 45.5143 136.097 46.1699 136.977 46.1699C137.132 46.1699 137.304 46.1527 137.494 46.1182C138.012 46.0146 138.754 45.6092 139.72 44.9019C140.669 44.229 141.428 43.8926 141.997 43.8926C142.221 43.8926 142.437 43.953 142.644 44.0737C143.179 44.3843 143.446 44.8932 143.446 45.6006C143.343 46.446 142.618 47.3776 141.272 48.3955C139.685 49.4652 138.089 50 136.485 50C135.191 50 134.095 49.6463 133.198 48.939C131.352 47.4552 130.429 44.2031 130.429 39.1826C130.429 38.8203 130.438 38.2337 130.455 37.4229C130.49 36.5775 130.507 35.8701 130.507 35.3008C130.507 33.4548 130.3 32.5059 129.886 32.4541C129.817 32.4541 129.73 32.4714 129.627 32.5059C128.644 32.8682 127.384 34.8263 125.849 38.3804C124.503 41.5031 123.64 44.0996 123.261 46.1699L123.209 46.9204C123.157 47.5415 122.985 48.1108 122.691 48.6284C122.191 49.4565 121.57 49.8706 120.828 49.8706C120.621 49.8706 120.414 49.8275 120.207 49.7412C119.396 49.3617 118.991 48.5508 118.991 47.3086ZM140.729 21.3521C140.746 21.3521 140.833 21.3521 140.988 21.3521C141.954 21.3866 142.825 21.4038 143.602 21.4038L144.74 13.4072C144.809 12.8724 144.896 12.4238 144.999 12.0615C145.31 10.9229 145.939 10.3535 146.888 10.3535C147.078 10.3535 147.268 10.3708 147.458 10.4053C148.251 10.5951 148.648 11.3455 148.648 12.6567C148.648 13.0708 148.303 15.9865 147.613 21.4038H150.33C150.796 21.4038 151.201 21.4987 151.546 21.6885C152.15 22.0508 152.452 22.5856 152.452 23.293C152.452 23.6035 152.375 23.8968 152.219 24.1729C151.822 24.8285 151.175 25.1562 150.278 25.1562H147.069C145.724 35.5078 145.051 41.3133 145.051 42.5728C145.051 43.3664 145.215 44.1082 145.542 44.7983C146.026 45.8335 146.664 46.3511 147.458 46.3511C147.647 46.3511 147.846 46.3252 148.053 46.2734C148.519 46.1527 149.183 45.7559 150.045 45.083C150.891 44.4102 151.598 44.0737 152.167 44.0737C152.409 44.0737 152.642 44.1255 152.866 44.229C153.487 44.5396 153.798 45.014 153.798 45.6523C153.746 46.5495 153.082 47.4811 151.805 48.4473C150.252 49.5687 148.605 50.1294 146.862 50.1294C145.154 50.1121 143.757 49.3962 142.67 47.9814C141.566 46.4805 141.014 44.5913 141.014 42.314C141.014 41.8136 141.695 36.0944 143.058 25.1562H140.729C140.625 25.1562 140.522 25.1562 140.418 25.1562C139.228 25.0527 138.633 24.4316 138.633 23.293C138.633 22.9824 138.685 22.6978 138.788 22.439C139.099 21.7144 139.746 21.3521 140.729 21.3521ZM150.589 41.874C150.589 41.2874 150.623 40.6663 150.692 40.0107C151.055 37.0433 151.986 34.4123 153.487 32.1177C155.316 29.3228 157.516 27.9253 160.086 27.9253C161.191 27.9253 162.157 28.141 162.985 28.5723C163.33 28.1582 163.804 27.9425 164.408 27.9253C164.753 27.9253 164.969 27.9512 165.055 28.0029C165.797 28.2445 166.168 28.9777 166.168 30.2026C166.168 30.703 166.082 31.7812 165.909 33.4375C165.374 38.3372 165.107 41.3823 165.107 42.5728C165.107 43.3664 165.271 44.1082 165.599 44.7983C166.082 45.8335 166.72 46.3511 167.514 46.3511C167.669 46.3511 167.833 46.3338 168.005 46.2993C168.523 46.1958 169.265 45.799 170.231 45.1089C171.18 44.4188 171.939 44.0737 172.508 44.0737C172.733 44.0737 172.965 44.1514 173.207 44.3066C173.707 44.6517 173.958 45.1089 173.958 45.6782C173.906 46.5754 173.224 47.507 171.913 48.4731C170.343 49.5773 168.678 50.1294 166.918 50.1294C164.745 50.1121 163.14 49.0166 162.105 46.8428C161.863 47.1361 161.587 47.4294 161.277 47.7227C159.569 49.3271 157.835 50.1294 156.075 50.1294C154.971 50.1294 154.014 49.8447 153.203 49.2754C151.46 47.9987 150.589 45.5316 150.589 41.874ZM161.976 33.3599C161.976 33.3599 162.036 32.7733 162.157 31.6001C161.777 31.4103 161.38 31.3154 160.966 31.3154C160.656 31.3154 160.337 31.3586 160.009 31.4448C158.404 31.8934 157.05 33.3771 155.946 35.896C154.962 38.1561 154.471 40.4248 154.471 42.7021C154.471 42.7884 154.471 42.8747 154.471 42.9609C154.522 45.0658 155.057 46.1182 156.075 46.1182C156.61 46.1009 157.266 45.8076 158.042 45.2383C158.836 44.6689 159.414 44.1341 159.776 43.6338C160 43.306 160.302 42.3485 160.682 40.7612C161.372 37.811 161.803 35.3439 161.976 33.3599Z" fill="#00C6FB"/>
</g>
</g>
</g>
<defs>
<filter id="filter0_d" x="6.76257" y="9.57715" width="300.219" height="96.9624" filterUnits="userSpaceOnUse" color-interpolation-filters="sRGB">
<feFlood flood-opacity="0" result="BackgroundImageFix"/>
<feColorMatrix in="SourceAlpha" type="matrix" values="0 0 0 0 0 0 0 0 0 0 0 0 0 0 0 0 0 0 127 0"/>
<feOffset dy="4"/>
<feGaussianBlur stdDeviation="2"/>
<feColorMatrix type="matrix" values="0 0 0 0 0 0 0 0 0 0 0 0 0 0 0 0 0 0 0.25 0"/>
<feBlend mode="normal" in2="BackgroundImageFix" result="effect1_dropShadow"/>
<feBlend mode="normal" in="SourceGraphic" in2="effect1_dropShadow" result="shape"/>
</filter>
<filter id="filter1_d" x="4.76257" y="22.0864" width="304.219" height="85.4531" filterUnits="userSpaceOnUse" color-interpolation-filters="sRGB">
<feFlood flood-opacity="0" result="BackgroundImageFix"/>
<feColorMatrix in="SourceAlpha" type="matrix" values="0 0 0 0 0 0 0 0 0 0 0 0 0 0 0 0 0 0 127 0"/>
<feOffset dy="3"/>
<feGaussianBlur stdDeviation="3"/>
<feColorMatrix type="matrix" values="0 0 0 0 0 0 0 0 0 0 0 0 0 0 0 0 0 0 0.769 0"/>
<feBlend mode="normal" in2="BackgroundImageFix" result="effect1_dropShadow"/>
<feBlend mode="normal" in="SourceGraphic" in2="effect1_dropShadow" result="shape"/>
</filter>
<filter id="filter2_d" x="0.762573" y="19.0864" width="312.219" height="93.4531" filterUnits="userSpaceOnUse" color-interpolation-filters="sRGB">
<feFlood flood-opacity="0" result="BackgroundImageFix"/>
<feColorMatrix in="SourceAlpha" type="matrix" values="0 0 0 0 0 0 0 0 0 0 0 0 0 0 0 0 0 0 127 0"/>
<feOffset dy="4"/>
<feGaussianBlur stdDeviation="5"/>
<feColorMatrix type="matrix" values="0 0 0 0 0 0 0 0 0 0 0 0 0 0 0 0 0 0 0.5 0"/>
<feBlend mode="normal" in2="BackgroundImageFix" result="effect1_dropShadow"/>
<feBlend mode="normal" in="SourceGraphic" in2="effect1_dropShadow" result="shape"/>
</filter>
<filter id="filter3_d" x="62.2681" y="6.57715" width="117.689" height="52.5522" filterUnits="userSpaceOnUse" color-interpolation-filters="sRGB">
<feFlood flood-opacity="0" result="BackgroundImageFix"/>
<feColorMatrix in="SourceAlpha" type="matrix" values="0 0 0 0 0 0 0 0 0 0 0 0 0 0 0 0 0 0 127 0"/>
<feOffset dy="3"/>
<feGaussianBlur stdDeviation="3"/>
<feColorMatrix type="matrix" values="0 0 0 0 0 0 0 0 0 0 0 0 0 0 0 0 0 0 0.78 0"/>
<feBlend mode="normal" in2="BackgroundImageFix" result="effect1_dropShadow"/>
<feBlend mode="normal" in="SourceGraphic" in2="effect1_dropShadow" result="shape"/>
</filter>
<filter id="filter4_d" x="58.2681" y="3.57715" width="125.689" height="60.5522" filterUnits="userSpaceOnUse" color-interpolation-filters="sRGB">
<feFlood flood-opacity="0" result="BackgroundImageFix"/>
<feColorMatrix in="SourceAlpha" type="matrix" values="0 0 0 0 0 0 0 0 0 0 0 0 0 0 0 0 0 0 127 0"/>
<feOffset dy="4"/>
<feGaussianBlur stdDeviation="5"/>
<feColorMatrix type="matrix" values="0 0 0 0 0 0 0 0 0 0 0 0 0 0 0 0 0 0 0.5 0"/>
<feBlend mode="normal" in2="BackgroundImageFix" result="effect1_dropShadow"/>
<feBlend mode="normal" in="SourceGraphic" in2="effect1_dropShadow" result="shape"/>
</filter>
</defs>
</svg>
